<svg xmlns="http://www.w3.org/2000/svg" xmlns:xlink="http://www.w3.org/1999/xlink" viewBox="0 0 600 360" width="600" height="360"><path d="M320 225c0-2.76 2.24-5 5-5h210c2.76 0 5 2.24 5 5v70c0 2.76-2.24 5-5 5H325c-2.76 0-5-2.24-5-5z" fill="none"/><use xlink:href="#a" transform="matrix(1,0,0,1,320,220) translate(24.599999999999994 22)"/><use xlink:href="#b" transform="matrix(1,0,0,1,320,220) translate(48.55 22)"/><use xlink:href="#c" transform="matrix(1,0,0,1,320,220) translate(82.55 22)"/><use xlink:href="#d" transform="matrix(1,0,0,1,320,220) translate(118.44999999999999 22)"/><use xlink:href="#e" transform="matrix(1,0,0,1,320,220) translate(7.175000000000011 43.6)"/><use xlink:href="#f" transform="matrix(1,0,0,1,320,220) translate(30.07500000000001 43.6)"/><use xlink:href="#g" transform="matrix(1,0,0,1,320,220) translate(88.875 43.6)"/><use xlink:href="#h" transform="matrix(1,0,0,1,320,220) translate(127.825 43.6)"/><use xlink:href="#i" transform="matrix(1,0,0,1,320,220) translate(152.825 43.6)"/><use xlink:href="#j" transform="matrix(1,0,0,1,320,220) translate(28.799999999999997 65.2)"/><use xlink:href="#k" transform="matrix(1,0,0,1,320,220) translate(54.75 65.2)"/><use xlink:href="#l" transform="matrix(1,0,0,1,320,220) translate(94.64999999999999 65.2)"/><path d="M140 205c0-2.76 2.24-5 5-5h130c2.76 0 5 2.24 5 5v110c0 2.76-2.24 5-5 5H145c-2.76 0-5-2.24-5-5z" stroke="#ccc" stroke-width="2" fill="#fff"/><path d="M160 220h100" stroke="#ccc" stroke-width="2" fill="none"/><path d="M160 240h100" stroke="#7ab648" stroke-width="8" fill="none"/><path d="M160 260h100M160 280h100M160 300h100" stroke="#ccc" stroke-width="2" fill="none"/><path d="M240 45c0-2.76 2.24-5 5-5h130c2.76 0 5 2.24 5 5v110c0 2.76-2.24 5-5 5H245c-2.76 0-5-2.24-5-5z" stroke="#ccc" stroke-width="2" fill="#fff"/><path d="M260 60h100M260 80h100M260 100h100" stroke="#ccc" stroke-width="2" fill="none"/><path d="M260 120h100" stroke="#7ab648" stroke-width="8" fill="none"/><path d="M260 140h100" stroke="#ccc" stroke-width="2" fill="none"/><path d="M40 45c0-2.76 2.24-5 5-5h130c2.76 0 5 2.24 5 5v110c0 2.76-2.24 5-5 5H45c-2.76 0-5-2.24-5-5z" stroke="#ccc" stroke-width="2" fill="#fff"/><path d="M60 60h100M60 80h100M60 100h100M60 120h100M60 140h100M182.4 199l-.1-1.53-.25-1.4-.43-1.37-.62-1.36-.85-1.4-1.2-1.5-1.74-1.7-2.75-2.13-5.6-3.24-17.02-8.67" stroke="#ccc" stroke-width="2" fill="none"/><path d="M184.2 200h-2.35l-.3-.47 1.7-1.06zM155.65 172.06l-7.35 5.65-5-14.13z" fill="#ccc"/><path d="M157.35 172.02l-9.54 7.32-6.48-18.34zm-8.57 4.05l5.17-3.96-8.7-5.97z" fill="#ccc"/><path d="M241.6 199l.1-1.77.34-1.62.53-1.55.77-1.55 1.1-1.62 1.6-1.8 2.5-2.16 4.93-3.2 15.9-8.82" stroke="#ccc" stroke-width="2" fill="none"/><path d="M242.46 199.5l-.3.5h-2.32l.9-1.5zM272.96 177.84l-7.47-5.5 12.18-8.73z" fill="#ccc"/><path d="M273.48 179.47l-9.7-7.13L279.6 161zm-6.28-7.1l5.25 3.85 3.3-10z" fill="#ccc"/><defs><path d="M127-220V0H93v-220H8v-28h204v28h-85" id="m"/><path d="M100-194c62-1 85 37 85 99 1 63-27 99-86 99S16-35 15-95c0-66 28-99 85-99zM99-20c44 1 53-31 53-75 0-43-8-75-51-75s-53 32-53 75 10 74 51 75" id="n"/><g id="a"><use transform="matrix(0.05,0,0,0.05,0,0)" xlink:href="#m"/><use transform="matrix(0.05,0,0,0.05,8.950000000000001,0)" xlink:href="#n"/></g><path d="M84 4C-5 8 30-112 23-190h32v120c0 31 7 50 39 49 72-2 45-101 50-169h31l1 190h-30c-1-10 1-25-2-33-11 22-28 36-60 37" id="o"/><path d="M135-143c-3-34-86-38-87 0 15 53 115 12 119 90S17 21 10-45l28-5c4 36 97 45 98 0-10-56-113-15-118-90-4-57 82-63 122-42 12 7 21 19 24 35" id="p"/><path d="M100-194c63 0 86 42 84 106H49c0 40 14 67 53 68 26 1 43-12 49-29l28 8c-11 28-37 45-77 45C44 4 14-33 15-96c1-61 26-98 85-98zm52 81c6-60-76-77-97-28-3 7-6 17-6 28h103" id="q"/><g id="b"><use transform="matrix(0.05,0,0,0.05,0,0)" xlink:href="#o"/><use transform="matrix(0.05,0,0,0.05,10,0)" xlink:href="#p"/><use transform="matrix(0.05,0,0,0.05,19,0)" xlink:href="#q"/></g><path fill="#7ab648" d="M115-3C79 11 28 4 28-45v-112H4v-33h27l15-45h31v45h36v33H77v99c-1 23 16 31 38 25v30" id="r"/><path fill="#7ab648" d="M231 0h-52l-39-155L100 0H48L-1-190h46L77-45c9-52 24-97 36-145h53l37 145 32-145h46" id="s"/><path fill="#7ab648" d="M110-194c64 0 96 36 96 99 0 64-35 99-97 99-61 0-95-36-95-99 0-62 34-99 96-99zm-1 164c35 0 45-28 45-65 0-40-10-65-43-65-34 0-45 26-45 65 0 36 10 65 43 65" id="t"/><g id="c"><use transform="matrix(0.05,0,0,0.05,0,0)" xlink:href="#r"/><use transform="matrix(0.05,0,0,0.05,5.95,0)" xlink:href="#s"/><use transform="matrix(0.05,0,0,0.05,19.95,0)" xlink:href="#t"/></g><path d="M101-234c-31-9-42 10-38 44h38v23H63V0H32v-167H5v-23h27c-7-52 17-82 69-68v24" id="u"/><path d="M117-194c89-4 53 116 60 194h-32v-121c0-31-8-49-39-48C34-167 62-67 57 0H25l-1-190h30c1 10-1 24 2 32 11-22 29-35 61-36" id="v"/><path d="M96-169c-40 0-48 33-48 73s9 75 48 75c24 0 41-14 43-38l32 2c-6 37-31 61-74 61-59 0-76-41-82-99-10-93 101-131 147-64 4 7 5 14 7 22l-32 3c-4-21-16-35-41-35" id="w"/><path d="M59-47c-2 24 18 29 38 22v24C64 9 27 4 27-40v-127H5v-23h24l9-43h21v43h35v23H59v120" id="x"/><path d="M24-231v-30h32v30H24zM24 0v-190h32V0H24" id="y"/><path d="M68-38c1 34 0 65-14 84H32c9-13 17-26 17-46H33v-38h35" id="z"/><g id="d"><use transform="matrix(0.05,0,0,0.05,0,0)" xlink:href="#u"/><use transform="matrix(0.05,0,0,0.05,5,0)" xlink:href="#o"/><use transform="matrix(0.05,0,0,0.05,15,0)" xlink:href="#v"/><use transform="matrix(0.05,0,0,0.05,25,0)" xlink:href="#w"/><use transform="matrix(0.05,0,0,0.05,34,0)" xlink:href="#x"/><use transform="matrix(0.05,0,0,0.05,39,0)" xlink:href="#y"/><use transform="matrix(0.05,0,0,0.05,42.95,0)" xlink:href="#n"/><use transform="matrix(0.05,0,0,0.05,52.95,0)" xlink:href="#v"/><use transform="matrix(0.05,0,0,0.05,62.95,0)" xlink:href="#p"/><use transform="matrix(0.05,0,0,0.05,71.95,0)" xlink:href="#z"/></g><path d="M141-36C126-15 110 5 73 4 37 3 15-17 15-53c-1-64 63-63 125-63 3-35-9-54-41-54-24 1-41 7-42 31l-33-3c5-37 33-52 76-52 45 0 72 20 72 64v82c-1 20 7 32 28 27v20c-31 9-61-2-59-35zM48-53c0 20 12 33 32 33 41-3 63-29 60-74-43 2-92-5-92 41" id="A"/><path d="M24 0v-261h32V0H24" id="B"/><g id="e"><use transform="matrix(0.05,0,0,0.05,0,0)" xlink:href="#A"/><use transform="matrix(0.05,0,0,0.05,10,0)" xlink:href="#B"/><use transform="matrix(0.05,0,0,0.05,13.949999999999998,0)" xlink:href="#B"/></g><path d="M121-226c-27-7-43 5-38 36h38v33H83V0H34v-157H6v-33h28c-9-59 32-81 87-68v32" id="C"/><path d="M25-224v-37h50v37H25zM25 0v-190h50V0H25" id="D"/><path d="M115-3C79 11 28 4 28-45v-112H4v-33h27l15-45h31v45h36v33H77v99c-1 23 16 31 38 25v30" id="E"/><path d="M185-48c-13 30-37 53-82 52C43 2 14-33 14-96s30-98 90-98c62 0 83 45 84 108H66c0 31 8 55 39 56 18 0 30-7 34-22zm-45-69c5-46-57-63-70-21-2 6-4 13-4 21h74" id="F"/><path d="M135-194c87-1 58 113 63 194h-50c-7-57 23-157-34-157-59 0-34 97-39 157H25l-1-190h47c2 12-1 28 3 38 12-26 28-41 61-42" id="G"/><g id="f"><use transform="matrix(0.05,0,0,0.05,0,0)" xlink:href="#C"/><use transform="matrix(0.05,0,0,0.05,5.95,0)" xlink:href="#D"/><use transform="matrix(0.05,0,0,0.05,10.95,0)" xlink:href="#C"/><use transform="matrix(0.05,0,0,0.05,16.9,0)" xlink:href="#E"/><use transform="matrix(0.05,0,0,0.05,22.849999999999998,0)" xlink:href="#F"/><use transform="matrix(0.05,0,0,0.05,32.849999999999994,0)" xlink:href="#F"/><use transform="matrix(0.05,0,0,0.05,42.849999999999994,0)" xlink:href="#G"/></g><path d="M210-169c-67 3-38 105-44 169h-31v-121c0-29-5-50-35-48C34-165 62-65 56 0H25l-1-190h30c1 10-1 24 2 32 10-44 99-50 107 0 11-21 27-35 58-36 85-2 47 119 55 194h-31v-121c0-29-5-49-35-48" id="H"/><path d="M179-190L93 31C79 59 56 82 12 73V49c39 6 53-20 64-50L1-190h34L92-34l54-156h33" id="I"/><g id="g"><use transform="matrix(0.05,0,0,0.05,0,0)" xlink:href="#H"/><use transform="matrix(0.05,0,0,0.05,14.950000000000001,0)" xlink:href="#A"/><use transform="matrix(0.05,0,0,0.05,24.950000000000003,0)" xlink:href="#I"/></g><path d="M115-194c53 0 69 39 70 98 0 66-23 100-70 100C84 3 66-7 56-30L54 0H23l1-261h32v101c10-23 28-34 59-34zm-8 174c40 0 45-34 45-75 0-40-5-75-45-74-42 0-51 32-51 76 0 43 10 73 51 73" id="J"/><g id="h"><use transform="matrix(0.05,0,0,0.05,0,0)" xlink:href="#J"/><use transform="matrix(0.05,0,0,0.05,10,0)" xlink:href="#q"/></g><path d="M85-194c31 0 48 13 60 33l-1-100h32l1 261h-30c-2-10 0-23-3-31C134-8 116 4 85 4 32 4 16-35 15-94c0-66 23-100 70-100zm9 24c-40 0-46 34-46 75 0 40 6 74 45 74 42 0 51-32 51-76 0-42-9-74-50-73" id="K"/><g id="i"><use transform="matrix(0.05,0,0,0.05,0,0)" xlink:href="#v"/><use transform="matrix(0.05,0,0,0.05,10,0)" xlink:href="#q"/><use transform="matrix(0.05,0,0,0.05,20,0)" xlink:href="#q"/><use transform="matrix(0.05,0,0,0.05,30,0)" xlink:href="#K"/><use transform="matrix(0.05,0,0,0.05,40,0)" xlink:href="#q"/><use transform="matrix(0.05,0,0,0.05,50,0)" xlink:href="#K"/></g><path d="M114-163C36-179 61-72 57 0H25l-1-190h30c1 12-1 29 2 39 6-27 23-49 58-41v29" id="L"/><g id="j"><use transform="matrix(0.05,0,0,0.05,0,0)" xlink:href="#u"/><use transform="matrix(0.05,0,0,0.05,5,0)" xlink:href="#n"/><use transform="matrix(0.05,0,0,0.05,15,0)" xlink:href="#L"/></g><path d="M106-169C34-169 62-67 57 0H25v-261h32l-1 103c12-21 28-36 61-36 89 0 53 116 60 194h-32v-121c2-32-8-49-39-48" id="M"/><g id="k"><use transform="matrix(0.05,0,0,0.05,0,0)" xlink:href="#x"/><use transform="matrix(0.05,0,0,0.05,5,0)" xlink:href="#M"/><use transform="matrix(0.05,0,0,0.05,15,0)" xlink:href="#q"/><use transform="matrix(0.05,0,0,0.05,25,0)" xlink:href="#y"/><use transform="matrix(0.05,0,0,0.05,28.950000000000003,0)" xlink:href="#L"/></g><path d="M16-82v-28h88v28H16" id="N"/><path d="M33 0v-38h34V0H33" id="O"/><g id="l"><use transform="matrix(0.05,0,0,0.05,0,0)" xlink:href="#p"/><use transform="matrix(0.05,0,0,0.05,9,0)" xlink:href="#y"/><use transform="matrix(0.05,0,0,0.05,12.949999999999998,0)" xlink:href="#K"/><use transform="matrix(0.05,0,0,0.05,22.95,0)" xlink:href="#q"/><use transform="matrix(0.05,0,0,0.05,32.95,0)" xlink:href="#N"/><use transform="matrix(0.05,0,0,0.05,38.900000000000006,0)" xlink:href="#q"/><use transform="matrix(0.05,0,0,0.05,48.900000000000006,0)" xlink:href="#u"/><use transform="matrix(0.05,0,0,0.05,53.550000000000004,0)" xlink:href="#u"/><use transform="matrix(0.05,0,0,0.05,58.550000000000004,0)" xlink:href="#q"/><use transform="matrix(0.05,0,0,0.05,68.55000000000001,0)" xlink:href="#w"/><use transform="matrix(0.05,0,0,0.05,77.55000000000001,0)" xlink:href="#x"/><use transform="matrix(0.05,0,0,0.05,82.55000000000001,0)" xlink:href="#p"/><use transform="matrix(0.05,0,0,0.05,91.55000000000001,0)" xlink:href="#O"/></g></defs></svg>