<?xml version="1.0" encoding="utf-8"?>
<!-- Generator: Adobe Illustrator 16.0.0, SVG Export Plug-In . SVG Version: 6.00 Build 0)  -->
<!DOCTYPE svg PUBLIC "-//W3C//DTD SVG 1.1//EN" "http://www.w3.org/Graphics/SVG/1.1/DTD/svg11.dtd">
<svg version="1.1" id="Layer_1" xmlns="http://www.w3.org/2000/svg" xmlns:xlink="http://www.w3.org/1999/xlink" x="0px" y="0px"
	 width="176px" height="54px" viewBox="0 0 176 54" enable-background="new 0 0 176 54" xml:space="preserve">
<g>
	<path fill="#231F20" d="M59,25.555V10.669h4.984c3.025,0,4.832,1.458,4.832,3.901c0,1.573-0.761,2.606-1.642,3.164
		c0.98,0.409,2.37,1.39,2.37,3.667c0,2.601-1.873,4.153-5.011,4.153H59z M64.577,24.175c2.284,0,3.542-1,3.542-2.817
		c0-2.254-1.951-2.728-3.587-2.728h-4.087v5.545H64.577z M64.1,17.229c2.11,0,3.273-0.921,3.273-2.593
		c0-2.12-1.817-2.565-3.341-2.565h-3.586v5.158H64.1z"/>
	<polygon fill="#231F20" points="73,25.555 73,10.669 82.365,10.669 82.365,12.07 74.445,12.07 74.445,17.32 81.437,17.32 
		81.437,18.72 74.445,18.72 74.445,24.153 82.365,24.153 82.365,25.555 	"/>
	<path fill="#231F20" d="M96.966,25.555l-0.078-0.183c-0.39-0.919-0.753-1.802-1.102-2.658c-0.252-0.614-0.48-1.173-0.71-1.723
		h-6.629l-1.862,4.563H85l0.236-0.562c1.389-3.29,2.779-6.646,4.121-9.892l1.811-4.367l0.228-0.064h0.95l3.034,7.323
		c0.967,2.337,1.934,4.672,2.905,7.003l0.234,0.56H96.966z M94.511,19.59l-2.751-6.638l-2.731,6.638H94.511z"/>
	<path fill="#231F20" d="M105.806,25.759c-3.689,0-5.806-2.158-5.806-5.921v-9.169h1.445v9.191c0,2.998,1.467,4.519,4.36,4.519
		s4.36-1.521,4.36-4.519v-9.191h1.445v9.169C111.611,23.601,109.495,25.759,105.806,25.759z"/>
	<polygon fill="#231F20" points="119.289,25.555 119.289,12.07 114,12.07 114,10.669 126.002,10.669 126.002,12.07 120.733,12.07 
		120.733,25.555 	"/>
	<rect x="129" y="10.669" fill="#231F20" width="1.448" height="14.886"/>
	<polygon fill="#231F20" points="135,25.555 135,10.669 144.117,10.669 144.117,12.07 136.445,12.07 136.445,17.363 143.21,17.363 
		143.21,18.789 136.445,18.789 136.445,25.555 	"/>
	<path fill="#231F20" d="M152.806,25.759c-3.689,0-5.806-2.158-5.806-5.921v-9.169h1.448v9.191c0,2.998,1.466,4.519,4.357,4.519
		c2.896,0,4.363-1.521,4.363-4.519v-9.191h1.448v9.169C158.617,23.601,156.499,25.759,152.806,25.759z"/>
	<polygon fill="#231F20" points="163,25.555 163,10.669 164.448,10.669 164.448,24.153 171.977,24.153 171.977,25.555 	"/>
	<path fill="#231F20" d="M59,43.181V31.835h3.574c3.52,0,5.38,1.965,5.38,5.682c0,3.759-1.81,5.664-5.38,5.664H59z M62.507,41.812
		c2.774,0,4.012-1.325,4.012-4.295c0-2.98-1.237-4.31-4.012-4.31h-2.072v8.604H62.507z"/>
	<polygon fill="#231F20" points="70,43.015 70,31.669 77.247,31.669 77.247,33.041 71.418,33.041 71.418,36.601 76.562,36.601 
		76.562,38.002 71.418,38.002 71.418,41.63 77.247,41.63 77.247,43.015 	"/>
	<path fill="#231F20" d="M83.574,43.331c-1.228,0-2.374-0.258-3.407-0.767L80,42.481v-1.585l0.448,0.254
		c0.893,0.506,1.922,0.763,3.061,0.763c0.804,0,2.673-0.173,2.673-1.773c0-1.433-1.274-1.789-2.748-2.202
		c-1.586-0.443-3.383-0.947-3.383-3.062c0-1.551,1.009-3.207,3.841-3.207c1.037,0,2.042,0.229,2.987,0.682l0.17,0.081v1.539
		l-0.439-0.23c-0.565-0.297-1.48-0.65-2.635-0.65c-0.924,0-2.474,0.232-2.474,1.786c0,0.994,0.918,1.308,2.417,1.736
		c1.655,0.473,3.714,1.062,3.714,3.527C87.632,42.108,86.077,43.331,83.574,43.331z"/>
	<polygon fill="#231F20" points="92.911,43.015 92.911,33.073 89,33.073 89,31.669 98.237,31.669 98.237,33.073 94.346,33.073 
		94.346,43.015 	"/>
	<rect x="100" y="31.669" fill="#231F20" width="1.418" height="11.346"/>
	<polygon fill="#231F20" points="112.763,43.015 106.435,34.145 106.435,43.015 105,43.015 105,31.669 106.391,31.669 
		112.702,40.556 112.702,31.669 114.136,31.669 114.136,43.015 	"/>
	<path fill="#231F20" d="M124.917,43.015l-0.077-0.185c-0.25-0.604-0.492-1.215-0.735-1.828c-0.185-0.466-0.369-0.932-0.558-1.396
		h-4.642l-1.354,3.409H116l0.17-0.414c0.749-1.823,1.49-3.65,2.231-5.479c0.712-1.757,1.424-3.514,2.145-5.268l0.076-0.186h1.223
		l4.604,11.346H124.917z M123.005,38.221l-1.78-4.438l-1.764,4.438H123.005z"/>
	<polygon fill="#231F20" points="129.908,43.015 129.908,33.073 126,33.073 126,31.669 135.237,31.669 135.237,33.073 
		131.343,33.073 131.343,43.015 	"/>
	<rect x="137" y="31.669" fill="#231F20" width="1.418" height="11.346"/>
	<path fill="#231F20" d="M146.247,43.331c-3.481,0-5.247-1.962-5.247-5.831s1.766-5.831,5.247-5.831
		c3.491,0,5.261,1.962,5.261,5.831S149.738,43.331,146.247,43.331z M146.247,33.054c-2.646,0-3.826,1.371-3.826,4.446
		c0,3.074,1.18,4.445,3.826,4.445s3.827-1.371,3.827-4.445C150.074,34.425,148.894,33.054,146.247,33.054z"/>
	<polygon fill="#231F20" points="162.766,43.015 156.438,34.145 156.438,43.015 155,43.015 155,31.669 156.391,31.669 
		162.705,40.556 162.705,31.669 164.139,31.669 164.139,43.015 	"/>
	<path fill="#231F20" d="M169.573,43.331c-1.228,0-2.373-0.258-3.406-0.767L166,42.481v-1.586l0.448,0.255
		c0.89,0.506,1.919,0.763,3.059,0.763c0.805,0,2.676-0.173,2.676-1.773c0-1.433-1.274-1.789-2.75-2.202
		c-1.586-0.443-3.384-0.947-3.384-3.062c0-1.551,1.01-3.207,3.843-3.207c1.035,0,2.04,0.229,2.987,0.682l0.171,0.081v1.539
		l-0.438-0.23c-0.567-0.297-1.484-0.65-2.638-0.65c-0.923,0-2.471,0.232-2.471,1.786c0,0.994,0.919,1.308,2.417,1.736
		c1.654,0.473,3.714,1.062,3.714,3.527C173.634,42.108,172.078,43.331,169.573,43.331z"/>
</g>
<g>
	<g>
		<g>
			<path fill="#231F20" d="M30.177,49.85H10.772V31.362h2.05v16.438h17.354c5.104,0,9.259-4.153,9.259-9.257
				c0-5.104-4.154-9.26-9.259-9.26H0v-2.047h30.177c6.234,0,11.307,5.071,11.307,11.307C41.484,44.777,36.411,49.85,30.177,49.85z"
				/>
		</g>
		<g>
			<path fill="#231F20" d="M30.177,54H6.966V31.294h2.05V51.95h21.161c7.394,0,13.408-6.014,13.408-13.406
				c0-7.394-6.014-13.407-13.408-13.407H0v-2.049h30.177c8.522,0,15.456,6.933,15.456,15.457C45.633,47.066,38.699,54,30.177,54z"/>
		</g>
	</g>
	<g opacity="0.9">
		<path d="M28.734,4.326H10.821V6.46H10.79v14.754h2.081V6.375h15.863c4.627,0,8.392,3.765,8.392,8.393
			c0,3.071-1.664,5.757-4.134,7.219c0.834,0.094,1.761,0.258,2.713,0.531c2.124-1.911,3.47-4.674,3.47-7.75
			C39.175,9.01,34.491,4.326,28.734,4.326z"/>
		<path d="M28.734,0.177H7.016v6.221H6.985v14.816h2.08V2.226h19.668c6.916,0,12.541,5.626,12.541,12.542
			c0,3.198-1.243,6.271-3.398,8.578c0.61,0.297,1.207,0.657,1.777,1.082c2.333-2.642,3.671-6.082,3.671-9.659
			C43.324,6.723,36.779,0.177,28.734,0.177z"/>
	</g>
</g>
</svg>
