<?xml version="1.0" encoding="utf-8"?>
<!-- Generator: Adobe Illustrator 19.1.0, SVG Export Plug-In . SVG Version: 6.00 Build 0)  -->
<svg version="1.1"
   id="svg2" xmlns:dc="http://purl.org/dc/elements/1.1/" xmlns:cc="http://web.resource.org/cc/" xmlns:rdf="http://www.w3.org/1999/02/22-rdf-syntax-ns#" xmlns:svg="http://www.w3.org/2000/svg" xmlns:sodipodi="http://sodipodi.sourceforge.net/DTD/sodipodi-0.dtd" xmlns:inkscape="http://www.inkscape.org/namespaces/inkscape" sodipodi:docname="Cquote1.svg" sodipodi:docbase="C:\Documents and Settings\Brittany Boyer\My Documents\Pictures\Work\Wikimedia\Clean up\Convert to SVG" inkscape:version="0.44.1" sodipodi:version="0.32"
   xmlns="http://www.w3.org/2000/svg" xmlns:xlink="http://www.w3.org/1999/xlink" x="0px" y="0px" viewBox="-285 382 77.1 30"
   style="enable-background:new -285 382 77.1 30;" xml:space="preserve">
<style type="text/css">
  .st0{ fill: rgb(18 147 216 / 30%); }
</style>
<sodipodi:namedview  inkscape:cy="15.697489" inkscape:cx="45.841389" inkscape:zoom="6.2833333" pagecolor="#ffffff" bordercolor="#666666" borderopacity="1.0" objecttolerance="10.0" guidetolerance="10.0" gridtolerance="10.0" id="base" inkscape:current-layer="svg2" inkscape:window-y="232" inkscape:window-x="176" inkscape:window-height="573" inkscape:pageopacity="0.0" inkscape:pageshadow="2" inkscape:window-width="853">
  </sodipodi:namedview>
  <path class="st0" transform="translate(-30 0)" d="M-213.5,386.6c5.1,5.7,1.6,15.7-2.7,19.5c-3.6,3.3-9.6,6-10.2,5c-0.9-1.5,2.6-2.5,5.3-4.9
    c3.3-3.6,4.4-5.2-0.2-7.2c-4.9-2.2-5-4.4-5.2-7.2C-226.8,384.9-218.5,381.6-213.5,386.6z"/>
  <path class="st0" transform="translate(-30 0)" d="M-232.7,386.5c5.1,5.7,1.6,15.7-2.7,19.5c-3.6,3.3-9.6,6-10.2,5c-0.9-1.5,2.6-2.5,5.3-4.9
    c3.3-3.6,4.4-5.2-0.2-7.2c-4.9-2.2-5-4.4-5.2-7.2C-245.9,384.8-237.7,381.5-232.7,386.5z"/>
</svg>
