<?xml version="1.0" encoding="utf-8"?>
<!-- Generator: Adobe Illustrator 21.0.0, SVG Export Plug-In . SVG Version: 6.00 Build 0)  -->
<svg version="1.1" id="Layer_1" xmlns="http://www.w3.org/2000/svg" xmlns:xlink="http://www.w3.org/1999/xlink" x="0px" y="0px"
	 viewBox="0 0 364 60" style="enable-background:new 0 0 364 60;" xml:space="preserve">
<style type="text/css">
	.st0{fill:#FF495C;}
</style>
<g>
	<g>
		<path class="st0" d="M104.9,43.4c-3.6,2.8-7.9,4.4-12.9,4.4c-11.8,0-19.7-9.4-19.7-20.1c0-12.2,8.6-21.8,20.8-21.8
			c4.3,0,8.5,1.3,11.6,3.5l-1.3,3.8c-2.8-2.2-6.6-3.5-10.6-3.5c-9.6,0-16.3,7.6-16.3,17.1c0,10.4,6.5,17.3,15.8,17.3
			c5.3,0,9.3-2,12.9-5.3L104.9,43.4z"/>
		<path class="st0" d="M128.6,46.8l-0.5-4.9c-1.9,3.2-6,5.9-9.6,5.9c-5.3,0-8.7-3-8.7-9.8v-7.6c0-3.1-0.1-6.8-0.3-9.4
			c1.5,0,3.1-0.1,4.4-0.2c-0.1,1.5-0.2,4.2-0.2,6.3V37c0,4.9,1.9,7.2,5.8,7.2c3.6,0,8.4-4,8.4-7.1v-6.8c0-3.1-0.1-6.8-0.3-9.4
			c1.6,0,3.2-0.1,4.4-0.2c-0.1,1.5-0.2,4.2-0.2,6.3v10.2c0,3.3,0.1,7.1,0.3,9.6C132.1,46.8,128.6,46.8,128.6,46.8z"/>
		<path class="st0" d="M138.9,46.8c0.2-2.4,0.3-6.1,0.3-9.4V15.9c0-3.9-0.1-6.9-0.3-9.6c1.5-0.1,3.1-0.3,4.4-0.6
			c-0.1,1-0.2,4.3-0.2,6.5V41c0,2,0.1,4.2,0.2,5.6h-4.4V46.8z"/>
		<path class="st0" d="M162.9,46.1c-1.1,0.9-3,1.4-4.8,1.4c-4.4,0-6.4-2.6-6.4-7V24.2h-4.6l1.1-3.4h3.5l0.4-5.7l3.5-0.9v6.6h7.2
			c-0.1,1-0.2,1.9-0.2,3.4h-7v16c0,2.8,1.2,3.8,3.4,3.8c1.6,0,3.1-0.6,4.2-1.3L162.9,46.1z"/>
		<path class="st0" d="M187.6,46.8l-0.5-4.9c-1.9,3.2-6,5.9-9.6,5.9c-5.3,0-8.7-3-8.7-9.8v-7.6c0-3.1-0.1-6.8-0.3-9.4
			c1.5,0,3.1-0.1,4.4-0.2c-0.1,1.5-0.2,4.2-0.2,6.3V37c0,4.9,1.9,7.2,5.8,7.2c3.6,0,8.4-4,8.4-7.1v-6.8c0-3.1-0.1-6.8-0.3-9.4
			c1.6,0,3.2-0.1,4.4-0.2c-0.1,1.5-0.2,4.2-0.2,6.3v10.2c0,3.3,0.1,7.1,0.3,9.6C191.1,46.8,187.6,46.8,187.6,46.8z"/>
		<path class="st0" d="M211.9,24.8c-4.3-0.5-8.6,2.8-8.6,6.9v9.2c0,2,0.1,4.2,0.2,5.9h-4.4c0.2-2.4,0.3-6.4,0.3-9.7v-7.3
			c0-3.3-0.2-6.3-0.5-8.6c1.3-0.1,2.7-0.3,3.9-0.6l0.5,5.9c1.8-3.4,4.6-5.8,9.2-6.3L211.9,24.8z"/>
		<path class="st0" d="M235,34.3l-17.1,0.5c0.2,6.1,3.5,9.4,9.1,9.4c4,0,6.9-1.7,9.4-3.8l-0.2,4.1c-2.7,1.9-5.7,3.2-9.7,3.2
			c-8.2,0-12.6-5.9-12.6-13c0-8.1,5.1-14.5,12.9-14.5c7.3,0,10.7,5.5,10.7,12.5L235,34.3z M233.9,31.4c-0.5-5-2.8-7.8-7.3-7.8
			c-4.7,0-7.9,3.6-8.6,8.2L233.9,31.4z"/>
		<path class="st0" d="M265.8,18c2.4-5.4,3.9-8.7,5.1-11.8l1.1-0.3L285.8,36c1.8,4,3.9,8.5,5.1,10.8l-4.6,0.4L280.4,34h-17.6
			l-0.9,2.1c-1.6,3.8-3.4,8.4-4.3,10.7h-4.7L265.8,18z M264.3,30.5h14.6l-7.3-16.7L264.3,30.5z"/>
		<path class="st0" d="M329.3,46.8c0.2-2.4,0.3-6.4,0.3-9.7v-6.9c0-4.2-1.6-6.5-5.1-6.5c-4.2,0-8.1,4.1-8.1,7.2v10
			c0,2,0.1,4.4,0.2,5.9h-4.4c0.2-2.4,0.3-6.4,0.3-9.7v-6.9c0-4.2-1.5-6.5-4.9-6.5c-4.2,0-8.1,4.1-8.1,7.2v10c0,2,0.1,4.2,0.2,5.9
			h-4.4c0.2-2.4,0.3-6.4,0.3-9.7v-6.5c0-3.3-0.1-7.2-0.3-9.7c1.5,0,2.6-0.1,3.9-0.2l0.3,5.1c2-2.8,5.5-5.6,9.3-5.6
			c4,0,6.8,2.1,7.5,5.8c1.6-2.7,5.1-5.8,9.5-5.8c5,0,8,3.1,8,9.1v11.6c0,2,0.1,4.4,0.2,5.9C334,46.8,329.3,46.8,329.3,46.8z"/>
		<path class="st0" d="M350.4,47.7c-2.8,0-5.5-1-7-2.3v7.8c0,1.9,0.1,4,0.2,5.5c-0.1,0-4.3,0.4-4.4,0.4c0.2-1.6,0.3-6.3,0.3-8.8
			V30.7c0-3.3-0.1-7.3-0.4-9.7c1.5,0,2.7-0.1,3.9-0.2l0.3,3.8c1.8-2.1,5-4.3,8.9-4.3c6.9,0,11.3,5.6,11.3,12.8
			C363.5,41.9,357,47.7,350.4,47.7z M351.2,23.7c-3.2,0-5.9,1.9-7.8,4.3v13.5c1.5,1.6,3.7,2.8,6.9,2.8c5.5,0,9.2-5,9.2-10.8
			C359.5,26.9,356,23.7,351.2,23.7z"/>
	</g>
	<path class="st0" d="M53.4,25.6c-0.2-1.5-0.6-2.1-0.8-2.1h-0.1c-0.3,0.1-0.6,1.2-0.5,2.1c0.2,2.9,0.5,6.1-1.6,11
		c-1,2.4-2.8,4.8-5.2,7.1c-3,2.9-5.5,3.5-6.2,3.5c-0.2,0-0.4-0.1-0.4-0.2c0,0,0-0.2,0.1-0.3l0.5-0.4c1.3-0.9,1.6-1.2,3-2.3
		c2.2-1.9,5.3-6.4,5.8-7.9c0.6-1.8,1.1-4.5,0.9-6.5c-0.1-1.3-0.4-1.7-0.4-1.7c-0.2,0-0.7,0.7-1,1.8c-0.3,1-0.6,2.1-0.9,3.2
		c-0.9,3.1-1.9,4.2-2.8,5.3c-0.2,0.2-0.4,0.4-0.6,0.7c-1.6,2.1-3.7,3.2-4.2,3.2c-0.2,0-0.3-0.1-0.3-0.2c-0.1-0.2,0.1-0.4,0.3-0.6
		c0.7-0.6,2.9-2.7,3.9-6.2c0.2-0.6,0-1.2-0.1-1.3c0,0-0.2,0.1-0.5,0.9c-0.7,1.7-0.8,1.9-1.9,3.5c-1.4,2-3.8,4-5,4.5
		c-1.8,0.9-3.8,1.3-5.9,1.3c-1.2,0-2.6-0.2-3.9-0.5c-3-0.7-6.5-3.6-6.7-3.9c-1-1-1.9-2.2-2.6-3.3c-1.6-2.9-2.3-5.7-2.1-8.4
		c0.3-2.7,0.8-4.9,2.7-7c1.8-2.1,3.5-3.6,6.4-4.6c1.4-0.5,3.3-0.8,5.1-0.8c2.6,0,4.9,0.5,6.3,1.5c2.5,1.7,3.4,2.5,5.7,4.8
		c1,1,2.6,1.6,4.2,1.6c1.2,0,2.4-0.3,3.4-1c2.2-1.3,3.4-2.9,3.7-4.9c0.6-4.3-3.3-8.5-3.4-8.5c-0.9-1-1.8-1.8-2.7-2.6
		c0-1.1-1.2-1.9-1.2-1.9C37.8-0.2,31.7-0.1,29.2,0c-3,0.1-5.8,0.5-8.5,1.2c-7,1.6-12.5,5.5-16.5,11.7C1.4,16.2,0.4,21.3,0,25.4
		c-0.3,4.5,1.4,11.1,2.4,12c0.9,0.8,1.7,1,1.8,1c0.5,1.2,1.1,2.3,1.4,2.7c0.2,0.3,0.4,0.5,0.5,0.8c1.1,1.6,2.3,3.3,3.8,4.7
		c2.6,2.2,4.8,3.4,7.9,4.8c3.1,1.3,5.4,1.9,8.4,2c1.1,0,1.8,0.1,2.4,0.1c2.4,0,4.1-0.2,6.6-0.9c2.6-0.7,5.4-2,7.6-3.4
		c1-0.6,3.9-3.3,5-4.5s3-4.1,4-6.9C54.2,31.4,53.7,27.9,53.4,25.6z"/>
</g>
</svg>
