<?xml version="1.0"?>
<svg xmlns="http://www.w3.org/2000/svg" xmlns:xlink="http://www.w3.org/1999/xlink" xmlns:sketch="http://www.bohemiancoding.com/sketch/ns" width="160px" height="34px" viewBox="0 0 960 206" version="1.1">
<!-- Generator: Sketch 3.1.1 (8761) - http://www.bohemiancoding.com/sketch -->
<title>futurice-logo--green</title>
<desc>Created with Sketch.</desc>
<defs/>
<g stroke="none" stroke-width="1" fill="none" fill-rule="evenodd" sketch:type="MSPage">
    <g sketch:type="MSLayerGroup" fill="#349C4A">
        <g sketch:type="MSShapeGroup">
            <path d="M635.7 65.9 L673.1 65.9 L673.1 202.3 L635.7 202.3 L635.7 65.9 L635.7 65.9 Z"/>
            <path d="M198.4 65.9 L198.4 139.6 C198.4 157.7 190.1 168.3 173.5 168.3 L173.5 168.3 C156.9 168.3 148.6 157.7 148.6 139.6 L148.6 65.9 L110.8 65.9 L110.8 149 C110.8 184.1 136.9 204.9 173.9 204.9 C210.9 204.9 237 184 237 149 L237 65.9 L198.4 65.9 L198.4 65.9 Z"/>
            <path d="M461.1 65.9 L461.1 139.6 C461.1 157.7 452.8 168.3 436.2 168.3 L436.2 168.3 C419.6 168.3 411.3 157.7 411.3 139.6 L411.3 65.9 L373.5 65.9 L373.5 149 C373.5 184.1 399.6 204.9 436.6 204.9 C473.6 204.9 499.7 184.1 499.7 149 L499.7 65.9 L461.1 65.9 L461.1 65.9 Z"/>
            <circle cx="653.8" cy="23.8" r="23.8"/>
            <path d="M522.3 65.9 L522.3 106.8 L522.3 202.3 L559.7 202.3 L559.7 99.5 L611.9 99.5 L611.9 65.9 L559.7 65.9 L522.3 65.9 Z"/>
            <path d="M918.8 159.7 C912 167.3 902.5 172.2 891.6 172.2 L891.2 172.2 C871.5 172.2 859.5 162.4 854.9 147.3 L960 147.3 L960 133.6 C960 94.3 931.3 62.9 889.7 62.9 C850.4 62.9 818.6 94.6 818.6 134 C818.6 173.4 848.1 205.1 890.4 205.1 L891.2 205.1 C913.1 205.1 930.5 196.8 942.6 184.3 L918.8 159.7 L918.8 159.7 Z M890.1 95.8 C906 95.8 917.7 103 922.6 117.3 L856.5 117.3 C862.1 104.5 874.2 95.8 890.1 95.8 L890.1 95.8 Z"/>
            <path d="M787.3 159.7 C780.9 165.7 772.6 169.5 763.1 169.5 L762.3 169.5 C743 169.1 728.3 153.6 728.3 134 C728.3 114.7 743 98.9 762.3 98.5 L763.1 98.5 C773.3 98.5 782 103 788.4 109.8 L814.1 84.1 C801.6 70.9 783.9 62.9 762.7 62.9 L762.3 62.9 C723.4 63.3 692.4 94.6 692.4 133.6 C692.4 172.6 723.4 204.3 762.3 204.3 L762.7 204.3 C782.7 204.3 800.1 196.7 812.6 184.6 L787.3 159.7 L787.3 159.7 Z"/>
            <path d="M297.1 65.9 L297.1 14.9 L259.7 14.9 L259.7 65.6 L259.7 99.2 L259.7 142.7 C259.7 187.3 274.1 202 317.1 202 L322.4 202 L349.2 202 L349.2 167.2 L322.4 167.2 C299.3 167.2 296.7 163.8 296.7 142.6 L296.7 99.6 L322.4 99.6 L349.2 99.6 L349.2 95 L349.2 70.4 L349.2 66 C349.2 65.9 297.1 65.9 297.1 65.9 L297.1 65.9 Z"/>
            <path d="M37.4 56.9 C37.4 44 45.3 36.5 55.9 36.5 C62.7 36.5 68 40.3 70.6 44.4 L93.3 21.7 C81.6 5.4 66.1 0.2 51 0.2 C23.4 0.2 0.7 24.4 0 56.5 L0 202.4 L37.4 202.4 L37.4 98.4 L85.8 98.4 L85.8 65.9 L37.4 65.9 L37.4 56.9 L37.4 56.9 Z"/>
        </g>
    </g>
</g>
</svg>
